<svg xmlns="http://www.w3.org/2000/svg" viewBox="0 0 1431.88 372.99"><defs><style>.cls-1{fill:#66d4e2;stroke:#00aab7;}.cls-1,.cls-10,.cls-2,.cls-5{stroke-miterlimit:10;stroke-width:4px;}.cls-2{fill:#e08a68;stroke:#db501f;}.cls-3{font-size:32px;font-family:MyriadPro-Regular, Myriad Pro;}.cls-4{letter-spacing:-0.01em;}.cls-5{fill:#b177ed;stroke:#7f25f4;}.cls-6{letter-spacing:-0.01em;}.cls-7{letter-spacing:0em;}.cls-8{letter-spacing:0em;}.cls-9{letter-spacing:0.02em;}.cls-10{fill:#7d7dd3;stroke:#4545f4;}</style></defs><g id="Слой_2" data-name="Слой 2"><g id="Слой_2-2" data-name="Слой 2"><polygon class="cls-1" points="903.07 263.79 546.39 263.79 546.39 263.79 903.07 263.79 903.07 263.79"/><polygon class="cls-1" points="303.26 264.3 206.2 113.1 206.2 113.1 303.26 264.3 303.26 264.3"/><rect class="cls-1" x="303.04" y="237.93" width="250.36" height="51.71" rx="25.85"/><polygon class="cls-2" points="996.42 24.87 977.28 112.64 977.28 112.64 996.42 24.87 996.42 24.87"/><polygon class="cls-2" points="1262.22 30.96 1315.33 113.68 1315.33 113.68 1262.22 30.96 1262.22 30.96"/><rect class="cls-2" x="996.42" y="2" width="205.81" height="51.71" rx="25.85"/><rect class="cls-1" x="596.52" y="244.85" width="37.87" height="37.87" rx="18.93"/><rect class="cls-1" x="790.33" y="244.85" width="37.87" height="37.87" rx="18.93"/><text class="cls-3" transform="translate(335.84 272.68)">lo<tspan class="cls-4" x="25.12" y="0">g</tspan><tspan x="42.82" y="0">in-backend</tspan></text><polygon class="cls-1" points="902.86 276.47 938.49 113.1 938.49 113.1 902.86 276.47 902.86 276.47"/><rect class="cls-1" x="884.13" y="244.85" width="37.87" height="37.87" rx="18.93"/><polygon class="cls-5" points="1283.26 345.13 1026.58 345.13 1026.58 345.13 1283.26 345.13 1283.26 345.13"/><polygon class="cls-5" points="783.45 345.64 634.47 113.56 634.47 113.56 783.45 345.64 783.45 345.64"/><rect class="cls-5" x="783.24" y="319.28" width="249.48" height="51.71" rx="25.85"/><rect class="cls-5" x="1076.71" y="326.2" width="37.87" height="37.87" rx="18.93"/><rect class="cls-5" x="1170.52" y="326.2" width="37.87" height="37.87" rx="18.93"/><text class="cls-3" transform="translate(816.03 354.03)">lo<tspan class="cls-4" x="25.12" y="0">g</tspan><tspan x="42.82" y="0">in-f</tspan><tspan class="cls-6" x="87.23" y="0">r</tspan><tspan x="97.37" y="0">o</tspan><tspan class="cls-7" x="114.94" y="0">n</tspan><tspan class="cls-4" x="132.57" y="0">t</tspan><tspan x="142.97" y="0">end</tspan></text><text class="cls-3" transform="translate(1022.71 38.64)">ho<tspan class="cls-8" x="35.33" y="0">t</tspan><tspan x="45.76" y="0">-fi</tspan><tspan class="cls-4" x="72.32" y="0">x</tspan><tspan class="cls-9" x="86.94" y="0">-</tspan><tspan class="cls-4" x="97.34" y="0">c</tspan><tspan x="111.49" y="0">ors</tspan></text><polygon class="cls-5" points="1283.05 357.82 1336.48 112.79 1336.48 112.79 1283.05 357.82 1283.05 357.82"/><rect class="cls-5" x="1264.32" y="326.2" width="37.87" height="37.87" rx="18.93"/><polygon class="cls-2" points="1271.13 27.85 1202.23 27.85 1202.23 27.85 1271.13 27.85 1271.13 27.85"/><rect class="cls-2" x="1233.26" y="8.92" width="37.87" height="37.87" rx="18.93"/><polygon class="cls-10" points="1431.88 113.1 151.53 113.1 151.53 113.1 1431.88 113.1 1431.88 113.1"/><rect class="cls-10" x="2" y="87.25" width="179.53" height="51.71" rx="25.85"/><text class="cls-3" transform="translate(34.79 122)">de<tspan class="cls-6" x="34.08" y="0">v</tspan><tspan x="49.15" y="0">elop</tspan></text></g></g></svg>