<svg xmlns="http://www.w3.org/2000/svg" viewBox="0 0 1162.87 997.21"><defs><style>.cls-1{fill:none;}.cls-2{fill:#bfbbea;}.cls-10,.cls-11,.cls-2,.cls-3,.cls-5{stroke:#fff;stroke-miterlimit:10;}.cls-3{fill:#9a8fe5;}.cls-12,.cls-22,.cls-4,.cls-6{font-size:24px;}.cls-22,.cls-4,.cls-6{font-family:ToshA-Bold, Tosh A;font-weight:700;}.cls-5{fill:#192a68;}.cls-22,.cls-6{fill:#fff;}.cls-7{letter-spacing:-0.02em;}.cls-8{letter-spacing:0em;}.cls-9{letter-spacing:0em;}.cls-10{fill:#4a1a66;}.cls-11{fill:#1a4b66;}.cls-12{fill:#dbdaef;font-family:ToshA-Regular, Tosh A;}.cls-13{letter-spacing:-0.01em;}.cls-14{letter-spacing:0em;}.cls-15{letter-spacing:0em;}.cls-16{letter-spacing:-0.02em;}.cls-17{letter-spacing:-0.05em;}.cls-18{letter-spacing:-0.01em;}.cls-19{letter-spacing:-0.01em;}.cls-20{letter-spacing:-0.08em;}.cls-21{fill:#35aa35;}.cls-22{letter-spacing:-0.01em;}.cls-23{fill:#f7931e;}.cls-24{fill:#e8c73d;}.cls-25{letter-spacing:-0.01em;}.cls-26{fill:#7240e2;}</style></defs><g id="Слой_2" data-name="Слой 2"><g id="Слой_1-2" data-name="Слой 1"><rect class="cls-1" x="0.5" y="100.17" width="436.85" height="49.84"/><rect class="cls-2" x="0.5" y="50.34" width="436.85" height="49.84"/><rect class="cls-3" x="0.5" y="399.18" width="436.85" height="49.84"/><rect class="cls-3" x="0.5" y="598.52" width="436.85" height="49.84"/><rect class="cls-3" x="0.5" y="797.87" width="436.85" height="49.84"/><text class="cls-4" transform="translate(218.63 82.99)">Первая Неделя</text><rect class="cls-5" x="437.35" y="0.5" width="241.67" height="49.84"/><text class="cls-6" transform="translate(459.98 33.16)">Login<tspan class="cls-7" x="68.62" y="0">o</tspan><tspan x="84.24" y="0">vskyM</tspan><tspan class="cls-8" x="164.88" y="0">a</tspan><tspan class="cls-9" x="181.56" y="0">x</tspan></text><rect class="cls-10" x="679.02" y="0.5" width="241.67" height="49.84"/><text class="cls-6" transform="translate(745.74 33.16)">kunitsa3</text><rect class="cls-11" x="920.7" y="0.5" width="241.67" height="49.84"/><text class="cls-6" transform="translate(989.07 33.16)">Jerubrin</text><text class="cls-12" transform="translate(94.09 132.99)">Общ<tspan class="cls-13" x="55.63" y="0">и</tspan><tspan x="69.84" y="0">й макет приложе</tspan><tspan class="cls-13" x="275.49" y="0">н</tspan><tspan x="289.2" y="0">ия</tspan></text><rect class="cls-1" x="0.5" y="150.01" width="436.85" height="49.84"/><text class="cls-12" transform="translate(136.09 182.83)">Back <tspan class="cls-14" x="64.7" y="0">E</tspan><tspan class="cls-15" x="77.76" y="0">nd, авторизация</tspan></text><rect class="cls-1" x="0.5" y="199.84" width="436.85" height="49.84"/><text class="cls-12" transform="translate(22.58 232.66)">Кно<tspan class="cls-13" x="43.8" y="0">п</tspan><tspan x="57.5" y="0">ки, мода</tspan><tspan class="cls-13" x="160.85" y="0">л</tspan><tspan x="174.5" y="0">ь</tspan><tspan class="cls-13" x="187.1" y="0">н</tspan><tspan class="cls-9" x="200.81" y="0">ые окна, input</tspan><tspan class="cls-16" x="367.19" y="0">’</tspan><tspan class="cls-15" x="371.75" y="0">ы</tspan></text><rect class="cls-1" x="0.5" y="249.68" width="436.85" height="49.84"/><text class="cls-12" transform="translate(255.49 282.5)">Авторизация</text><rect class="cls-1" x="0.5" y="299.51" width="436.85" height="49.84"/><text class="cls-12" transform="translate(47.73 332.33)">Созда<tspan class="cls-13" x="77.78" y="0">н</tspan><tspan x="91.49" y="0">ие осно</tspan><tspan class="cls-14" x="184.94" y="0">в</tspan><tspan class="cls-15" x="198.26" y="0">ной стра</tspan><tspan class="cls-13" x="305.11" y="0">ни</tspan><tspan x="333.02" y="0">цы</tspan></text><rect class="cls-1" x="0.5" y="349.35" width="436.85" height="49.84"/><text class="cls-12" transform="translate(237.49 382.17)">Ci<tspan class="cls-16" x="24.94" y="0">/</tspan><tspan class="cls-15" x="35.71" y="0">C</tspan><tspan class="cls-17" x="54.36" y="0">D</tspan><tspan class="cls-9" x="71.5" y="0">, </tspan><tspan class="cls-18" x="81.58" y="0">х</tspan><tspan class="cls-15" x="94.3" y="0">ост</tspan><tspan class="cls-19" x="135.21" y="0">ин</tspan><tspan x="163.13" y="0">г</tspan></text><rect class="cls-1" x="0.5" y="449.02" width="436.85" height="49.84"/><text class="cls-12" transform="translate(112.84 481.84)">Созда<tspan class="cls-13" x="77.78" y="0">н</tspan><tspan x="91.49" y="0">ие Memory Game</tspan></text><rect class="cls-1" x="0.5" y="498.85" width="436.85" height="49.84"/><text class="cls-12" transform="translate(46.7 531.67)">Созда<tspan class="cls-13" x="77.78" y="0">н</tspan><tspan x="91.49" y="0">ие SeaBattle - backend</tspan></text><rect class="cls-1" x="0.5" y="548.69" width="436.85" height="49.84"/><text class="cls-12" transform="translate(50.1 581.51)">Созда<tspan class="cls-13" x="77.78" y="0">н</tspan><tspan x="91.49" y="0">ие SeaBattle - frontend</tspan></text><rect class="cls-1" x="0.5" y="648.36" width="436.85" height="49.84"/><text class="cls-12" transform="translate(158.8 681.18)">Созда<tspan class="cls-13" x="77.78" y="0">н</tspan><tspan x="91.49" y="0">ие </tspan><tspan class="cls-19" x="125.66" y="0">и</tspan><tspan x="139.87" y="0">гры </tspan><tspan class="cls-20" x="188.95" y="0">T</tspan><tspan x="199.61" y="0">etris</tspan></text><rect class="cls-1" x="0.5" y="698.2" width="436.85" height="49.84"/><text class="cls-12" transform="translate(67.91 731.02)">Созда<tspan class="cls-13" x="77.78" y="0">н</tspan><tspan x="91.49" y="0">ие стра</tspan><tspan class="cls-13" x="183.86" y="0">ни</tspan><tspan class="cls-15" x="211.77" y="0">цы pr</tspan><tspan class="cls-13" x="273.52" y="0">e</tspan><tspan x="287.97" y="0">view</tspan></text><rect class="cls-1" x="0.5" y="748.03" width="436.85" height="49.84"/><text class="cls-12" transform="translate(53.32 780.85)">Созда<tspan class="cls-13" x="77.78" y="0">н</tspan><tspan x="91.49" y="0">ие стра</tspan><tspan class="cls-13" x="183.86" y="0">ни</tspan><tspan class="cls-15" x="211.77" y="0">цы с </tspan><tspan class="cls-13" x="267.38" y="0">и</tspan><tspan x="281.59" y="0">гра</tspan><tspan class="cls-13" x="324.84" y="0">м</tspan><tspan class="cls-15" x="343.6" y="0">и</tspan></text><rect class="cls-1" x="0.5" y="847.7" width="436.85" height="49.84"/><text class="cls-12" transform="translate(128.27 880.52)">Перевод и те<tspan class="cls-19" x="154.73" y="0">м</tspan><tspan x="173.49" y="0">ная тема</tspan></text><rect class="cls-1" x="0.5" y="897.54" width="436.85" height="49.84"/><text class="cls-12" transform="translate(120.35 930.36)">Стра<tspan class="cls-13" x="61.94" y="0">ни</tspan><tspan x="89.85" y="0">ца по</tspan><tspan class="cls-13" x="153.89" y="0">л</tspan><tspan x="167.54" y="0">ьзователя</tspan></text><rect class="cls-1" x="0.5" y="947.37" width="436.85" height="49.84"/><text class="cls-12" transform="translate(93.83 980.19)">Фу<tspan class="cls-13" x="34.13" y="0">н</tspan><tspan x="47.83" y="0">кц</tspan><tspan class="cls-19" x="75.05" y="0">и</tspan><tspan class="cls-9" x="89.25" y="0">и ад</tspan><tspan class="cls-13" x="139.7" y="0">мин</tspan><tspan x="186.38" y="0">истратора</tspan></text><rect class="cls-2" x="0.5" y="399.18" width="436.85" height="49.84"/><text class="cls-4" transform="translate(219.73 431.84)">Вторая Неделя</text><rect class="cls-2" x="0.5" y="598.52" width="436.85" height="49.84"/><text class="cls-4" transform="translate(225.4 631.18)">Третья Неделя</text><rect class="cls-2" x="0.5" y="797.87" width="436.85" height="49.84"/><text class="cls-4" transform="translate(179.12 830.52)">Четвертая Неделя</text><rect class="cls-21" x="437.35" y="100.17" width="241.67" height="49.84"/><text class="cls-22" transform="translate(482.51 132.99)">R<tspan class="cls-9" x="16.32" y="0">esponsible</tspan></text><rect class="cls-21" x="679.02" y="199.84" width="241.67" height="49.84"/><text class="cls-22" transform="translate(724.19 232.66)">R<tspan class="cls-9" x="16.32" y="0">esponsible</tspan></text><rect class="cls-21" x="679.02" y="249.68" width="241.67" height="49.84"/><text class="cls-22" transform="translate(724.19 282.5)">R<tspan class="cls-9" x="16.32" y="0">esponsible</tspan></text><rect class="cls-21" x="679.02" y="299.51" width="241.67" height="49.84"/><text class="cls-22" transform="translate(724.19 332.33)">R<tspan class="cls-9" x="16.32" y="0">esponsible</tspan></text><rect class="cls-21" x="437.35" y="449.02" width="241.67" height="49.84"/><text class="cls-22" transform="translate(482.51 481.84)">R<tspan class="cls-9" x="16.32" y="0">esponsible</tspan></text><rect class="cls-21" x="920.7" y="498.85" width="241.67" height="49.84"/><text class="cls-22" transform="translate(965.86 531.67)">R<tspan class="cls-9" x="16.32" y="0">esponsible</tspan></text><rect class="cls-21" x="437.35" y="548.69" width="241.67" height="49.84"/><text class="cls-22" transform="translate(482.51 581.51)">R<tspan class="cls-9" x="16.32" y="0">esponsible</tspan></text><rect class="cls-21" x="679.02" y="648.36" width="241.67" height="49.84"/><text class="cls-22" transform="translate(724.19 681.18)">R<tspan class="cls-9" x="16.32" y="0">esponsible</tspan></text><rect class="cls-21" x="920.7" y="748.03" width="241.67" height="49.84"/><text class="cls-22" transform="translate(965.86 780.85)">R<tspan class="cls-9" x="16.32" y="0">esponsible</tspan></text><rect class="cls-21" x="437.35" y="698.2" width="241.67" height="49.84"/><text class="cls-22" transform="translate(482.51 731.02)">R<tspan class="cls-9" x="16.32" y="0">esponsible</tspan></text><rect class="cls-21" x="437.35" y="847.7" width="241.67" height="49.84"/><text class="cls-22" transform="translate(482.51 880.52)">R<tspan class="cls-9" x="16.32" y="0">esponsible</tspan></text><rect class="cls-21" x="437.35" y="897.54" width="241.67" height="49.84"/><text class="cls-22" transform="translate(482.51 930.36)">R<tspan class="cls-9" x="16.32" y="0">esponsible</tspan></text><rect class="cls-21" x="920.7" y="947.37" width="241.67" height="49.84"/><text class="cls-22" transform="translate(965.86 980.19)">R<tspan class="cls-9" x="16.32" y="0">esponsible</tspan></text><rect class="cls-21" x="920.7" y="349.35" width="241.67" height="49.84"/><text class="cls-22" transform="translate(965.86 382.17)">R<tspan class="cls-9" x="16.32" y="0">esponsible</tspan></text><rect class="cls-23" x="679.02" y="100.17" width="241.67" height="49.84"/><text class="cls-6" transform="translate(721.04 132.99)">Accountable</text><rect class="cls-23" x="437.35" y="150.01" width="241.67" height="49.84"/><text class="cls-6" transform="translate(479.37 182.83)">Accountable</text><rect class="cls-23" x="437.35" y="249.68" width="241.67" height="49.84"/><text class="cls-6" transform="translate(479.37 282.5)">Accountable</text><rect class="cls-23" x="437.35" y="299.51" width="241.67" height="49.84"/><text class="cls-6" transform="translate(479.37 332.33)">Accountable</text><rect class="cls-23" x="437.35" y="349.35" width="241.67" height="49.84"/><text class="cls-6" transform="translate(479.37 382.17)">Accountable</text><rect class="cls-23" x="920.7" y="449.02" width="241.67" height="49.84"/><text class="cls-6" transform="translate(962.72 481.84)">Accountable</text><rect class="cls-23" x="679.02" y="498.85" width="241.67" height="49.84"/><text class="cls-6" transform="translate(721.04 531.67)">Accountable</text><rect class="cls-23" x="679.02" y="548.69" width="241.67" height="49.84"/><text class="cls-6" transform="translate(721.04 581.51)">Accountable</text><rect class="cls-23" x="437.35" y="648.36" width="241.67" height="49.84"/><text class="cls-6" transform="translate(479.37 681.18)">Accountable</text><rect class="cls-23" x="920.7" y="698.2" width="241.67" height="49.84"/><text class="cls-6" transform="translate(962.72 731.02)">Accountable</text><rect class="cls-23" x="679.02" y="748.03" width="241.67" height="49.84"/><text class="cls-6" transform="translate(721.04 780.85)">Accountable</text><rect class="cls-23" x="679.02" y="947.37" width="241.67" height="49.84"/><text class="cls-6" transform="translate(721.04 980.19)">Accountable</text><rect class="cls-23" x="920.7" y="847.7" width="241.67" height="49.84"/><text class="cls-6" transform="translate(962.72 880.52)">Accountable</text><rect class="cls-23" x="679.02" y="897.54" width="241.67" height="49.84"/><text class="cls-6" transform="translate(721.04 930.36)">Accountable</text><rect class="cls-23" x="920.7" y="199.84" width="241.67" height="49.84"/><text class="cls-6" transform="translate(962.72 232.66)">Accountable</text><rect class="cls-24" x="920.7" y="100.17" width="241.67" height="49.84"/><text class="cls-6" transform="translate(938.84 132.99)"><tspan class="cls-25">I</tspan><tspan x="11.06" y="0">nform aft doing</tspan></text><rect class="cls-26" x="920.7" y="249.68" width="241.67" height="49.84"/><text class="cls-6" transform="translate(930.98 282.5)">Consult bef doing</text><rect class="cls-26" x="920.7" y="548.69" width="241.67" height="49.84"/><text class="cls-6" transform="translate(930.98 581.51)">Consult bef doing</text><rect class="cls-26" x="437.35" y="947.37" width="241.67" height="49.84"/><text class="cls-6" transform="translate(447.63 980.19)">Consult bef doing</text><rect class="cls-26" x="920.69" y="897.54" width="241.67" height="49.84"/><text class="cls-6" transform="translate(930.98 930.36)">Consult bef doing</text><rect class="cls-26" x="437.35" y="748.03" width="241.67" height="49.84"/><text class="cls-6" transform="translate(447.63 780.85)">Consult bef doing</text><rect class="cls-24" x="679.02" y="150.01" width="241.67" height="49.84"/><text class="cls-6" transform="translate(697.16 182.83)"><tspan class="cls-25">I</tspan><tspan x="11.06" y="0">nform aft doing</tspan></text><rect class="cls-24" x="920.7" y="299.51" width="241.67" height="49.84"/><text class="cls-6" transform="translate(938.84 332.33)"><tspan class="cls-25">I</tspan><tspan x="11.06" y="0">nform aft doing</tspan></text><rect class="cls-24" x="679.02" y="349.35" width="241.67" height="49.84"/><text class="cls-6" transform="translate(697.16 382.17)"><tspan class="cls-25">I</tspan><tspan x="11.06" y="0">nform aft doing</tspan></text><rect class="cls-24" x="679.02" y="449.02" width="241.67" height="49.84"/><text class="cls-6" transform="translate(697.16 481.84)"><tspan class="cls-25">I</tspan><tspan x="11.06" y="0">nform aft doing</tspan></text><rect class="cls-24" x="920.7" y="648.36" width="241.67" height="49.84"/><text class="cls-6" transform="translate(938.84 681.18)"><tspan class="cls-25">I</tspan><tspan x="11.06" y="0">nform aft doing</tspan></text><rect class="cls-24" x="679.02" y="698.2" width="241.67" height="49.84"/><text class="cls-6" transform="translate(697.16 731.02)"><tspan class="cls-25">I</tspan><tspan x="11.06" y="0">nform aft doing</tspan></text><rect class="cls-24" x="679.02" y="847.7" width="241.67" height="49.84"/><text class="cls-6" transform="translate(697.16 880.52)"><tspan class="cls-25">I</tspan><tspan x="11.06" y="0">nform aft doing</tspan></text><rect class="cls-24" x="437.35" y="498.85" width="241.67" height="49.84"/><text class="cls-6" transform="translate(455.49 531.67)"><tspan class="cls-25">I</tspan><tspan x="11.06" y="0">nform aft doing</tspan></text><rect class="cls-24" x="437.35" y="199.84" width="241.67" height="49.84"/><text class="cls-6" transform="translate(455.49 232.66)"><tspan class="cls-25">I</tspan><tspan x="11.06" y="0">nform aft doing</tspan></text><rect class="cls-21" x="920.7" y="150.01" width="241.67" height="49.84"/><text class="cls-22" transform="translate(965.86 182.83)">R<tspan class="cls-9" x="16.32" y="0">esponsible</tspan></text></g></g></svg>